<?xml version="1.0" encoding="UTF-8"?>
<svg width="84px" height="95px" viewBox="0 0 84 95" version="1.1" xmlns="http://www.w3.org/2000/svg" xmlns:xlink="http://www.w3.org/1999/xlink">
    <!-- Generator: Sketch 59.1 (86144) - https://sketch.com -->
    <title>Group</title>
    <desc>Created with Sketch.</desc>
    <g id="Page-1" stroke="none" stroke-width="1" fill="none" fill-rule="evenodd">
        <g id="-" transform="translate(-564.000000, -494.000000)">
            <g id="Group" transform="translate(564.000000, 494.000000)">
                <circle id="Oval" fill="#2F4BE9" cx="42" cy="53" r="42"></circle>
                <circle id="Oval" stroke="#FFFFFF" stroke-width="4" cx="42" cy="42" r="40"></circle>
                <path d="M36,36 C36,29.372583 30.627417,24 24,24 C17.372583,24 12,29.372583 12,36" id="Oval" stroke="#FFFFFF" stroke-width="4" stroke-linecap="round"></path>
                <path d="M71,36 C71,29.372583 65.627417,24 59,24 C52.372583,24 47,29.372583 47,36" id="Oval-Copy" stroke="#FFFFFF" stroke-width="4" stroke-linecap="round"></path>
                <path d="M60,70 C60,60.0588745 51.9411255,52 42,52 C32.0588745,52 24,60.0588745 24,70 C48,70 60,70 60,70 Z" id="Oval-Copy-2" stroke="#FFFFFF" stroke-width="4" stroke-linecap="round" stroke-linejoin="round" transform="translate(42.000000, 61.000000) scale(1, -1) translate(-42.000000, -61.000000) "></path>
            </g>
        </g>
    </g>
</svg>